<svg xmlns="http://www.w3.org/2000/svg" role="img" viewBox="0 0 168 168">
  <title>Spotify</title>
  <image href="song_image.jpg" x="0" y="0" height="168" width="168"/>
  <path fill="#1DB954" d="M84 0C37.8 0 0 37.8 0 84s37.8 84 84 84 84-37.8 84-84S130.2 0 84 0zm38.1 121.1c-1.2 1.8-3.5 2.4-5.3 1.2-14.6-8.9-33-10.9-54.6-6.1-2.1.5-4.1-.9-4.6-3-.5-2.1.9-4.1 3-4.6 23.5-5.1 43.8-2.8 60.2 7 1.8 1.1 2.4 3.4 1.3 5.5zm7.6-19.5c-1.5 2.3-4.5 3-6.8 1.6-16.7-10.2-42.1-13.2-61.8-7.4-2.6.8-5.4-.6-6.2-3.2-.8-2.6.6-5.4 3.2-6.2 22.4-6.6 49.2-3.3 68.5 8.2 2.3 1.4 3 4.4 1.6 6.8zm.2-20.5c-20.1-12.1-53.1-13.2-71.5-7.4-3 .9-6.2-.8-7.1-3.8-.9-3 .8-6.2 3.8-7.1 21.5-6.4 57.2-5.1 80.1 8.4 2.7 1.6 3.6 5.1 2 7.8-1.6 2.7-5.1 3.6-7.8 2z"/>
</svg>